Coordinates
version=1
nRows=14
nColumns=24
inDegrees=yes

Units are S.I. units (second, meters, Newtons, ...)
Angles are in degrees.

endheader
time	pelvis_tilt	pelvis_list	pelvis_rotation	pelvis_tx	pelvis_ty	pelvis_tz	hip_flexion_r	hip_adduction_r	hip_rotation_r	knee_angle_r	ankle_angle_r	subtalar_angle_r	mtp_angle_r	hip_flexion_l	hip_adduction_l	hip_rotation_l	knee_angle_l	ankle_angle_l	subtalar_angle_l	mtp_angle_l	lumbar_extension	lumbar_bending	lumbar_rotation
      6.13000000	      4.32064079	     -2.02244162	     -1.62455248	     -1.69301734	      0.94214589	      0.15510852	     18.34942311	      3.36703827	     -6.03073194	    -55.14189501	      0.07175236	    -17.59498455	      0.00000000	     -1.05804873	      2.13948669	     -1.81649906	     -7.60154943	      8.45511389	     -2.87325785	      0.00000000	    -22.09689422	      0.98690173	     -1.21854071
      6.14000000	      4.15312480	     -2.23930827	     -1.50865502	     -1.68411554	      0.94245504	      0.15478419	     18.97398021	      3.67121695	     -6.33660870	    -52.92793514	      1.42570551	    -16.48749599	      0.00000000	     -1.68360257	      1.94635323	     -1.73813606	     -7.22509514	      8.78779126	     -2.82037672	      0.00000000	    -21.97400612	      1.27969016	     -1.39748095
      6.15000000	      3.99949415	     -2.42832934	     -1.37664542	     -1.67514293	      0.94262316	      0.15450204	     19.45954989	      3.95283247	     -6.64837754	    -50.42494771	      2.59314053	    -15.40195380	      0.00000000	     -2.31868321	      1.77996937	     -1.63200362	     -6.86071366	      9.11479181	     -2.80243232	      0.00000000	    -21.86118360	      1.54344063	     -1.59499700
      6.16000000	      3.87298463	     -2.59746197	     -1.20850409	     -1.66610281	      0.94266930	      0.15424701	     19.78240954	      4.22264091	     -6.97161427	    -47.62225310	      3.48551451	    -14.43304541	      0.00000000	     -2.97431618	      1.63020386	     -1.45442000	     -6.51722791	      9.48492607	     -2.77925600	      0.00000000	    -21.77865103	      1.79545577	     -1.85012955
      6.17000000	      3.75812325	     -2.70930616	     -1.02998096	     -1.65696885	      0.94253459	      0.15404940	     19.97490600	      4.42673472	     -7.33613554	    -44.56943690	      4.35420346	    -13.47643827	      0.00000000	     -3.63852311	      1.53685165	     -1.30656690	     -6.18026916	      9.79944836	     -2.80285065	      0.00000000	    -21.69726684	      1.97642591	     -2.09063141
      6.18000000	      3.66421746	     -2.78640419	     -0.81982977	     -1.64775985	      0.94224769	      0.15388944	     20.01590794	      4.60820660	     -7.69832895	    -41.25089793	      4.90887983	    -12.63748921	      0.00000000	     -4.31314697	      1.47419644	     -1.08635513	     -5.87682837	     10.18896966	     -2.80801483	      0.00000000	    -21.63787206	      2.12318993	     -2.40512109
      6.19000000	      3.60110664	     -2.78915661	     -0.60587603	     -1.63844142	      0.94178849	      0.15377855	     19.91532227	      4.71031181	     -8.08839424	    -37.73374063	      5.46264794	    -11.69282234	      0.00000000	     -5.02227252	      1.48826451	     -0.87231725	     -5.57936922	     10.53542486	     -2.85845190	      0.00000000	    -21.59952090	      2.18131172	     -2.72227526
      6.20000000	      3.54091875	     -2.72484461	     -0.39206736	     -1.62900445	      0.94111477	      0.15373069	     19.71797811	      4.74319459	     -8.51231630	    -34.06116134	      5.96575442	    -10.59538093	      0.00000000	     -5.74020907	      1.56955955	     -0.63969679	     -5.28489028	     10.86176055	     -2.98660026	      0.00000000	    -21.54225202	      2.15759930	     -3.04044857
      6.21000000	      3.50870343	     -2.59111938	     -0.15812836	     -1.61949161	      0.94027834	      0.15374195	     19.40498797	      4.72164065	     -8.90191960	    -30.25769843	      6.26125706	     -9.41713675	      0.00000000	     -6.46930570	      1.71344307	     -0.34193400	     -5.04389625	     11.24066472	     -3.09226290	      0.00000000	    -21.51846821	      2.04580900	     -3.40707001
      6.22000000	      3.46537855	     -2.40315216	      0.05359575	     -1.60984828	      0.93922026	      0.15383205	     19.04955322	      4.64984422	     -9.29632352	    -26.40907879	      6.56894490	     -7.91525740	      0.00000000	     -7.20508365	      1.90985813	     -0.03896138	     -4.78433424	     11.58619490	     -3.29326519	      0.00000000	    -21.45251929	      1.86160007	     -3.75101539
      6.23000000	      3.42559220	     -2.16281547	      0.27692473	     -1.60015271	      0.93799648	      0.15398164	     18.64442430	      4.54536972	     -9.59046391	    -22.53835539	      6.71322769	     -6.26588534	      0.00000000	     -7.91939213	      2.14839483	      0.32172644	     -4.58852088	     11.95787827	     -3.50171831	      0.00000000	    -21.39555999	      1.60904659	     -4.10297462
      6.24000000	      3.39297478	     -1.88844951	      0.49869734	     -1.59038683	      0.93663167	      0.15420509	     18.19959592	      4.42906423	     -9.71540045	    -18.69620440	      6.72801771	     -4.54078787	      0.00000000	     -8.63156663	      2.40850335	      0.69386949	     -4.42617502	     12.34247441	     -3.70047722	      0.00000000	    -21.34386834	      1.30594596	     -4.45716817
      6.25000000	      3.38548849	     -1.59300996	      0.74454284	     -1.58056039	      0.93518274	      0.15446056	     17.68825549	      4.31389497	     -9.53271812	    -14.90114829	      6.54422214	     -3.03076763	      0.00000000	     -9.35172354	      2.67058233	      1.05466498	     -4.30818927	     12.72246553	     -3.81101338	      0.00000000	    -21.32456262	      0.98745647	     -4.85050459
      6.26000000	      3.35812520	     -1.29243745	      0.97358389	     -1.57071378	      0.93358600	      0.15478373	     17.18736673	      4.19784306	     -9.01418421	    -11.24947683	      6.26337161	     -1.69832922	      0.00000000	    -10.00669360	      2.92884295	      1.43299381	     -4.29266745	     13.21439806	     -3.91213967	      0.00000000	    -21.29481414	      0.65539235	     -5.16066146
